<?xml version="1.0" encoding="UTF-8"?>
<svg xmlns="http://www.w3.org/2000/svg" xmlns:xlink="http://www.w3.org/1999/xlink" width="300px" height="49px" viewBox="0 0 327 54" version="1.1">
<defs>
<linearGradient id="linear0" gradientUnits="userSpaceOnUse" x1="108.41" y1="92" x2="185.68" y2="14.73" gradientTransform="matrix(0.504715,0,0,0.504759,0,0.0660821)">
<stop offset="0" style="stop-color:rgb(98.039216%,8.627451%,37.647059%);stop-opacity:1;"/>
<stop offset="1" style="stop-color:rgb(100%,49.019608%,9.019608%);stop-opacity:1;"/>
</linearGradient>
</defs>
<g id="surface1">
<path style=" stroke:none;fill-rule:nonzero;fill:rgb(100%,100%,100%);fill-opacity:1;" d="M 0 42.371094 L 23.628906 13.496094 L 1.074219 13.496094 L 1.074219 1.503906 L 41.796875 1.503906 L 41.796875 11.628906 L 18.09375 40.503906 L 43.375 40.503906 L 43.375 52.496094 L 0 52.496094 Z M 0 42.371094 "/>
<path style=" stroke:none;fill-rule:nonzero;fill:rgb(100%,100%,100%);fill-opacity:1;" d="M 121.34375 1.503906 L 134.414062 27.863281 L 147.488281 1.503906 L 161.636719 1.503906 L 161.636719 52.5 L 147.988281 52.5 L 147.988281 23.769531 L 139.15625 41.871094 L 129.390625 41.871094 L 120.554688 23.839844 L 120.554688 52.5 L 106.910156 52.5 L 106.910156 1.503906 Z M 121.34375 1.503906 "/>
<path style=" stroke:none;fill-rule:nonzero;fill:rgb(100%,100%,100%);fill-opacity:1;" d="M 189.792969 1.503906 C 198.339844 1.503906 207.535156 4.8125 207.535156 14.9375 C 207.535156 19.605469 205.449219 23.269531 201.355469 25.566406 C 206.742188 27.574219 209.6875 32.171875 209.6875 37.847656 C 209.6875 48.617188 199.5625 52.5 190.15625 52.5 L 169.542969 52.5 L 169.542969 1.503906 L 189.796875 1.503906 Z M 188.5 21.542969 C 191.519531 21.542969 193.886719 20.25 193.886719 16.945312 C 193.886719 13.640625 191.589844 12.277344 188.5 12.277344 L 182.828125 12.277344 L 182.828125 21.542969 Z M 189.941406 41.722656 C 193.386719 41.722656 195.972656 40.285156 195.972656 36.550781 C 195.972656 34.898438 195.464844 33.605469 194.460938 32.671875 C 193.386719 31.808594 191.878906 31.382812 189.941406 31.382812 L 182.828125 31.382812 L 182.828125 41.722656 Z M 189.941406 41.722656 "/>
<path style=" stroke:none;fill-rule:nonzero;fill:rgb(100%,100%,100%);fill-opacity:1;" d="M 215.074219 1.503906 L 229.4375 1.503906 L 229.4375 52.5 L 215.074219 52.5 Z M 215.074219 1.503906 "/>
<path style=" stroke:none;fill-rule:nonzero;fill:rgb(100%,100%,100%);fill-opacity:1;" d="M 271.308594 1.503906 L 271.308594 13.285156 L 250.984375 13.285156 L 250.984375 20.683594 L 268.796875 20.683594 L 268.796875 32.390625 L 250.984375 32.390625 L 250.984375 40.796875 L 272.097656 40.796875 L 272.097656 52.5 L 237.335938 52.5 L 237.335938 1.503906 Z M 271.308594 1.503906 "/>
<path style=" stroke:none;fill-rule:nonzero;fill:url(#linear0);" d="M 74.265625 0.0664062 C 58.679688 0.0664062 46.617188 11.628906 46.617188 27.070312 C 46.617188 42.511719 58.894531 53.933594 74.121094 53.933594 C 89.351562 53.933594 101.769531 42.441406 101.769531 26.929688 C 101.769531 11.417969 89.5625 0.0664062 74.265625 0.0664062 Z M 81.515625 10.792969 C 82.515625 11.335938 83.402344 12.113281 83.914062 13.089844 C 84.421875 14.066406 84.519531 15.265625 84.015625 16.242188 C 83.546875 17.15625 82.613281 17.804688 81.605469 18.203125 C 79.433594 19.058594 76.800781 18.828125 74.835938 17.597656 C 72.871094 16.363281 71.628906 14.175781 71.640625 11.953125 C 74.640625 9.5 78.605469 9.1875 81.511719 10.792969 Z M 69.53125 37.292969 C 69.605469 37.207031 69.679688 37.125 69.765625 37.054688 C 69.679688 37.125 69.605469 37.207031 69.53125 37.292969 C 69.472656 37.363281 69.417969 37.429688 69.375 37.492188 C 69.417969 37.421875 69.472656 37.359375 69.53125 37.285156 Z M 64.351562 24.585938 C 63.558594 25.613281 62.519531 26.550781 61.210938 26.839844 C 59.191406 27.28125 57.03125 25.925781 56.339844 24.09375 C 55.644531 22.261719 56.230469 20.140625 57.476562 18.585938 C 58.890625 16.828125 61.117188 15.671875 63.453125 15.496094 C 65.230469 16.59375 66.09375 18.296875 66.101562 19.957031 C 66.121094 21.621094 65.394531 23.234375 64.351562 24.585938 Z M 86.21875 39.851562 C 85.90625 39.304688 85.554688 38.777344 85.15625 38.269531 C 84.898438 37.941406 84.585938 37.605469 84.15625 37.554688 C 83.730469 37.507812 83.320312 37.765625 83.101562 38.105469 C 82.882812 38.453125 82.828125 38.863281 82.804688 39.265625 C 82.769531 39.804688 82.789062 40.339844 82.863281 40.875 C 81.292969 41.441406 79.753906 42.117188 78.265625 42.898438 C 78.085938 42.550781 77.863281 42.21875 77.625 41.90625 C 77.308594 41.492188 76.828125 41.050781 76.289062 41.152344 C 75.777344 41.25 75.503906 41.757812 75.347656 42.230469 C 75.078125 43.070312 74.933594 43.953125 74.941406 44.832031 C 73.699219 45.636719 72.492188 46.515625 71.328125 47.449219 C 70.019531 44.96875 69.242188 42.238281 69.066406 39.484375 C 69.023438 38.804688 69.03125 38.078125 69.378906 37.5 C 69.394531 37.574219 69.402344 37.65625 69.417969 37.730469 C 69.539062 38.296875 69.863281 38.855469 70.394531 39.148438 C 70.921875 39.441406 71.679688 39.40625 72.082031 38.957031 C 72.457031 38.550781 72.433594 37.933594 72.300781 37.402344 C 72.21875 37.074219 72.109375 36.738281 72.054688 36.402344 C 72.695312 36.359375 73.355469 36.332031 73.945312 36.175781 C 75.152344 35.867188 76.039062 35.039062 76.910156 34.15625 C 77.003906 34.824219 77.398438 35.519531 78.09375 35.660156 C 78.796875 35.804688 79.492188 35.292969 79.75 34.671875 C 80.007812 34.046875 79.933594 33.351562 79.824219 32.6875 C 79.785156 32.441406 79.734375 32.1875 79.710938 31.9375 C 80.914062 31.394531 82.304688 31.300781 83.640625 31.574219 C 83.644531 31.574219 83.65625 31.574219 83.660156 31.574219 C 83.65625 31.574219 83.644531 31.574219 83.640625 31.574219 C 83.640625 31.617188 83.636719 31.664062 83.636719 31.710938 C 83.601562 32.21875 83.554688 32.753906 83.738281 33.230469 C 83.917969 33.71875 84.402344 34.140625 84.949219 34.101562 C 85.671875 34.054688 86.058594 33.304688 86.246094 32.648438 C 86.25 32.632812 86.25 32.613281 86.261719 32.601562 C 86.253906 32.601562 86.246094 32.59375 86.234375 32.585938 C 86.242188 32.585938 86.25 32.597656 86.261719 32.601562 C 86.371094 32.664062 86.472656 32.738281 86.574219 32.808594 C 88.6875 34.292969 89.933594 36.652344 90.722656 39.058594 C 89.203125 39.210938 87.695312 39.472656 86.21875 39.839844 Z M 86.21875 39.851562 "/>
<path style=" stroke:none;fill-rule:nonzero;fill:rgb(100%,100%,100%);fill-opacity:1;" d="M 298.378906 20.964844 L 298.378906 4.484375 L 309.839844 4.484375 L 309.839844 20.953125 L 327 20.953125 L 327 31.9375 L 309.839844 31.9375 L 309.839844 48.371094 L 298.378906 48.371094 L 298.378906 31.9375 L 281.171875 31.9375 L 281.171875 20.964844 Z M 298.378906 20.964844 "/>
</g>
</svg>
