<?xml version="1.0" encoding="UTF-8"?>
<svg xmlns="http://www.w3.org/2000/svg" xmlns:xlink="http://www.w3.org/1999/xlink" width="101px" height="150px" viewBox="0 0 95 140" version="1.1">
<defs>
<clipPath id="clip1">
  <path d="M 0 111 L 95 111 L 95 140 L 0 140 Z M 0 111 "/>
</clipPath>
<clipPath id="clip2">
  <path d="M 109.203125 127.601562 L 109.203125 140 L -15.796875 140 L -15.796875 131.640625 C -14.582031 131.324219 -13.050781 130.964844 -11.21875 130.609375 L -11.933594 127.160156 L -13.503906 127.480469 L -13.847656 125.8125 L -12.28125 125.492188 L -12.628906 123.804688 L -10.953125 123.460938 L -10.605469 125.144531 L -9.035156 124.824219 L -8.691406 126.496094 L -10.261719 126.816406 L -9.539062 130.300781 C -8.222656 130.066406 -6.78125 129.847656 -5.21875 129.648438 L -8.59375 119.476562 L -2.296875 111.65625 L 5.425781 118.085938 L 4.113281 128.863281 C 5.285156 128.816406 6.496094 128.78125 7.75 128.769531 L 7.59375 125.785156 L 5.992188 125.867188 L 5.902344 124.164062 L 7.5 124.078125 L 7.410156 122.359375 L 9.117188 122.269531 L 9.210938 123.988281 L 10.808594 123.90625 L 10.898438 125.609375 L 9.300781 125.695312 L 9.464844 128.761719 C 11.164062 128.769531 12.878906 128.808594 14.609375 128.878906 L 15.414062 122.578125 L 12.058594 122.152344 L 12.515625 118.574219 L 15.871094 119.003906 L 16.335938 115.386719 L 19.925781 115.839844 L 19.460938 119.457031 L 22.816406 119.882812 L 22.363281 123.460938 L 19.003906 123.03125 L 18.234375 129.0625 C 21.621094 129.269531 25.039062 129.566406 28.425781 129.898438 L 28.835938 125.355469 L 26.429688 125.140625 L 26.660156 122.574219 L 29.066406 122.789062 L 29.300781 120.195312 L 31.875 120.425781 L 31.640625 123.019531 L 34.050781 123.234375 L 33.816406 125.800781 L 31.414062 125.585938 L 31 130.15625 C 32.894531 130.355469 34.78125 130.558594 36.640625 130.761719 L 37.308594 127.679688 L 35.746094 127.34375 L 36.109375 125.679688 L 37.671875 126.015625 L 38.035156 124.328125 L 39.707031 124.691406 L 39.34375 126.375 L 40.90625 126.710938 L 40.546875 128.375 L 38.984375 128.039062 L 38.351562 130.949219 C 40.371094 131.167969 42.359375 131.382812 44.316406 131.582031 L 43.386719 123.585938 L 49.332031 118.699219 L 54.117188 124.71875 L 51.570312 132.238281 C 54.457031 132.457031 57.21875 132.597656 59.816406 132.621094 L 59.523438 127.15625 L 57.109375 127.28125 L 56.972656 124.710938 L 59.386719 124.585938 L 59.246094 121.984375 L 61.828125 121.847656 L 61.96875 124.449219 L 64.378906 124.320312 L 64.515625 126.890625 L 62.105469 127.019531 L 62.398438 132.59375 C 63.761719 132.554688 65.214844 132.484375 66.734375 132.378906 L 66.421875 126.722656 L 70.464844 123.777344 L 73.339844 127.867188 L 71.671875 131.96875 C 74.558594 131.691406 77.589844 131.347656 80.65625 130.96875 L 78.925781 125.761719 L 82.066406 121.867188 L 85.910156 125.066406 L 85.261719 130.390625 C 87.898438 130.054688 90.519531 129.703125 93.050781 129.375 L 92.605469 120.953125 L 88.6875 121.160156 L 88.46875 116.988281 L 92.382812 116.78125 L 92.15625 112.5625 L 96.34375 112.339844 L 96.570312 116.558594 L 100.484375 116.351562 L 100.707031 120.523438 L 96.792969 120.730469 L 97.222656 128.839844 C 98.90625 128.625 100.53125 128.429688 102.066406 128.257812 L 102.808594 124.816406 L 101.246094 124.480469 L 101.609375 122.8125 L 103.171875 123.148438 L 103.535156 121.464844 L 105.210938 121.824219 L 104.84375 123.507812 L 106.40625 123.84375 L 106.046875 125.511719 L 104.484375 125.175781 L 103.859375 128.058594 C 105.835938 127.851562 107.636719 127.691406 109.203125 127.601562 Z M 109.203125 127.601562 "/>
</clipPath>
<filter id="alpha" filterUnits="objectBoundingBox" x="0%" y="0%" width="100%" height="100%">
  <feColorMatrix type="matrix" in="SourceGraphic" values="0 0 0 0 1 0 0 0 0 1 0 0 0 0 1 0 0 0 1 0"/>
</filter>
<mask id="mask0">
  <g filter="url(#alpha)">
<rect x="0" y="0" width="95" height="140" style="fill:rgb(0%,0%,0%);fill-opacity:0.8;stroke:none;"/>
  </g>
</mask>
<clipPath id="clip3">
  <rect x="0" y="0" width="95" height="140"/>
</clipPath>
<g id="surface5" clip-path="url(#clip3)">
<path style=" stroke:none;fill-rule:nonzero;fill:rgb(100%,100%,100%);fill-opacity:1;" d="M 37.136719 64.238281 L 34.191406 64.238281 L 34.191406 68.402344 L 30.613281 68.402344 L 30.613281 64.238281 L 21.59375 64.238281 L 21.121094 61.335938 L 31.566406 48.214844 L 34.191406 48.214844 L 34.191406 61.335938 L 37.515625 61.335938 Z M 24.949219 61.335938 L 30.613281 61.335938 L 30.613281 54.019531 Z M 24.949219 61.335938 "/>
<path style=" stroke:none;fill-rule:nonzero;fill:rgb(100%,100%,100%);fill-opacity:1;" d="M 73.503906 64.238281 L 70.558594 64.238281 L 70.558594 68.402344 L 66.984375 68.402344 L 66.984375 64.238281 L 57.960938 64.238281 L 57.488281 61.335938 L 67.933594 48.214844 L 70.558594 48.214844 L 70.558594 61.335938 L 73.882812 61.335938 Z M 61.316406 61.335938 L 66.984375 61.335938 L 66.984375 54.019531 Z M 61.316406 61.335938 "/>
</g>
<mask id="mask1">
  <g filter="url(#alpha)">
<rect x="0" y="0" width="95" height="140" style="fill:rgb(0%,0%,0%);fill-opacity:0.8;stroke:none;"/>
  </g>
</mask>
<linearGradient id="linear0" gradientUnits="userSpaceOnUse" x1="767.3" y1="-300.22" x2="881.25" y2="-186.27" gradientTransform="matrix(0.115,0,0,-0.114591,-46.8825,29.532028)">
<stop offset="0" style="stop-color:rgb(98.039216%,8.627451%,37.647059%);stop-opacity:1;"/>
<stop offset="1" style="stop-color:rgb(100%,49.019608%,9.019608%);stop-opacity:1;"/>
</linearGradient>
<clipPath id="clip4">
  <rect x="0" y="0" width="95" height="140"/>
</clipPath>
<g id="surface8" clip-path="url(#clip4)">
<path style=" stroke:none;fill-rule:nonzero;fill:url(#linear0);" d="M 47.523438 48.320312 C 42.308594 48.320312 38.273438 52.171875 38.273438 57.324219 C 38.273438 62.472656 42.382812 66.277344 47.476562 66.277344 C 52.574219 66.277344 56.726562 62.445312 56.726562 57.277344 C 56.726562 52.105469 52.640625 48.320312 47.523438 48.320312 Z M 49.949219 51.894531 C 50.285156 52.078125 50.578125 52.335938 50.753906 52.660156 C 50.921875 52.984375 50.953125 53.382812 50.789062 53.710938 C 50.628906 54.015625 50.316406 54.230469 49.980469 54.363281 C 49.253906 54.648438 48.371094 54.574219 47.714844 54.160156 C 47.058594 53.75 46.640625 53.019531 46.644531 52.28125 C 47.648438 51.464844 48.976562 51.359375 49.949219 51.894531 Z M 45.941406 60.726562 C 45.964844 60.699219 45.988281 60.671875 46.015625 60.648438 C 45.988281 60.671875 45.964844 60.699219 45.941406 60.726562 C 45.921875 60.75 45.902344 60.773438 45.886719 60.796875 C 45.902344 60.773438 45.921875 60.75 45.941406 60.726562 Z M 44.207031 56.492188 C 43.941406 56.835938 43.59375 57.148438 43.15625 57.246094 C 42.484375 57.390625 41.761719 56.941406 41.527344 56.332031 C 41.296875 55.722656 41.488281 55.011719 41.90625 54.496094 C 42.378906 53.910156 43.125 53.523438 43.90625 53.464844 C 44.503906 53.832031 44.789062 54.402344 44.792969 54.953125 C 44.800781 55.507812 44.554688 56.046875 44.207031 56.496094 Z M 51.523438 61.582031 C 51.417969 61.402344 51.300781 61.222656 51.167969 61.054688 C 51.078125 60.945312 50.976562 60.832031 50.832031 60.816406 C 50.691406 60.800781 50.550781 60.886719 50.480469 61 C 50.40625 61.117188 50.386719 61.25 50.378906 61.386719 C 50.367188 61.566406 50.375 61.746094 50.398438 61.921875 C 49.875 62.109375 49.359375 62.335938 48.863281 62.597656 C 48.800781 62.480469 48.726562 62.371094 48.648438 62.265625 C 48.542969 62.128906 48.378906 61.980469 48.199219 62.011719 C 48.03125 62.046875 47.9375 62.214844 47.886719 62.371094 C 47.796875 62.652344 47.746094 62.949219 47.75 63.238281 C 47.335938 63.507812 46.929688 63.800781 46.539062 64.109375 C 46.101562 63.285156 45.84375 62.375 45.78125 61.457031 C 45.765625 61.230469 45.769531 60.988281 45.886719 60.792969 C 45.890625 60.816406 45.894531 60.84375 45.898438 60.871094 C 45.941406 61.058594 46.050781 61.246094 46.226562 61.34375 C 46.40625 61.441406 46.65625 61.429688 46.792969 61.277344 C 46.917969 61.144531 46.910156 60.9375 46.863281 60.761719 C 46.835938 60.652344 46.800781 60.539062 46.78125 60.425781 C 46.996094 60.410156 47.21875 60.402344 47.414062 60.351562 C 47.820312 60.25 48.113281 59.972656 48.40625 59.679688 C 48.441406 59.902344 48.570312 60.132812 48.800781 60.179688 C 49.039062 60.226562 49.269531 60.058594 49.359375 59.851562 C 49.445312 59.640625 49.421875 59.410156 49.382812 59.1875 C 49.371094 59.105469 49.351562 59.023438 49.34375 58.941406 C 49.746094 58.757812 50.210938 58.726562 50.660156 58.816406 L 50.667969 58.816406 L 50.660156 58.816406 C 50.660156 58.832031 50.660156 58.847656 50.660156 58.863281 C 50.648438 59.03125 50.632812 59.210938 50.695312 59.367188 C 50.753906 59.53125 50.917969 59.671875 51.101562 59.660156 C 51.34375 59.644531 51.46875 59.394531 51.535156 59.175781 C 51.535156 59.171875 51.535156 59.164062 51.539062 59.160156 C 51.539062 59.160156 51.535156 59.160156 51.53125 59.15625 C 51.53125 59.15625 51.535156 59.160156 51.539062 59.160156 C 51.578125 59.179688 51.609375 59.207031 51.644531 59.230469 C 52.351562 59.726562 52.769531 60.511719 53.03125 61.3125 C 52.523438 61.363281 52.019531 61.449219 51.523438 61.574219 Z M 51.523438 61.582031 "/>
</g>
</defs>
<g id="surface1">
<rect x="0" y="0" width="95" height="140" style="fill:rgb(12.54902%,12.54902%,14.117647%);fill-opacity:1;stroke:none;"/>
<g clip-path="url(#clip1)" clip-rule="nonzero">
<g clip-path="url(#clip2)" clip-rule="nonzero">
<rect x="0" y="0" width="95" height="140" style="fill:rgb(7.058824%,7.058824%,7.843137%);fill-opacity:1;stroke:none;"/>
</g>
</g>
<use xlink:href="#surface5" mask="url(#mask0)"/>
<use xlink:href="#surface8" mask="url(#mask1)"/>
</g>
</svg>
